####
#
# OBJ File Generated by Meshlab
#
####
# Object tinker.obj
#
# Vertices: 178
# Faces: 348
#
####
mtllib ./tinker.obj.mtl

vn -1.5707964 1.5707964 1.5707964
v -9.0000000 19.0000000 20.0000000 1.000000 1.000000 1.000000
vn -1.5707964 1.5707964 -1.5707964
v -9.0000000 19.0000000 0.0000000 1.000000 1.000000 1.000000
vn -1.5707964 -1.5707974 -1.5707963
v -9.0000000 11.0000000 0.0000000 1.000000 1.000000 1.000000
vn -1.5707964 -1.5707976 1.5707963
v -9.0000000 11.0000000 20.0000000 1.000000 1.000000 1.000000
vn -2.2964625 4.7756262 1.3638744
v -3.9500000 8.0000000 16.4099998 1.000000 1.000000 1.000000
vn -0.9599221 -3.4548302 -2.9509373
v 1.5050000 -21.2500000 20.5930004 1.000000 1.000000 1.000000
vn 0.0000000 -3.4573503 -3.1025205
v 0.5000000 -21.2500000 20.7530003 1.000000 1.000000 1.000000
vn -1.8236761 -3.4558740 -2.5103979
v 2.4119999 -21.2500000 20.1310005 1.000000 1.000000 1.000000
vn -2.5103977 -3.4558752 -1.8236752
v 3.1310000 -21.2500000 19.4120007 1.000000 1.000000 1.000000
vn -1.5707964 1.5707970 1.5707964
v -6.0000000 8.0000000 25.0830002 1.000000 1.000000 1.000000
vn -1.5707963 -1.5707966 1.5707964
v -6.0000000 -13.6669998 25.0830002 1.000000 1.000000 1.000000
vn -2.7237937 -2.1962941 1.2154582
v -3.9500000 11.0000000 13.4099998 1.000000 1.000000 1.000000
vn -1.5707963 1.5707964 -1.5707965
v -6.0000000 8.0000000 11.0000000 1.000000 1.000000 1.000000
vn -1.5707964 -1.5707971 -1.5707967
v -6.0000000 -13.6669998 11.0000000 1.000000 1.000000 1.000000
vn -1.8243008 2.8277576 2.5100799
v -1.4100000 -15.8330002 20.1289997 0.752941 0.752941 0.752941
vn -2.5100794 2.8277574 1.8243012
v -2.1289999 -15.8330002 19.4099998 0.752941 0.752941 0.752941
vn -0.7899055 -1.9265149 -5.4721889
v -1.2000000 1.4400001 11.0000000 1.000000 1.000000 1.000000
vn -1.5823780 -1.7358164 -5.2081432
v -2.7330000 2.5450001 11.0000000 1.000000 1.000000 1.000000
vn -2.5100794 -2.8277571 1.8243012
v -2.1289999 -19.0830002 19.4099998 0.752941 0.752941 0.752941
vn -3.1029737 -3.5367365 -0.1722094
v -5.0000000 11.0000000 8.8380003 1.000000 1.000000 1.000000
vn -3.0722313 -2.8454397 0.5302947
v -4.7309999 11.0000000 11.2410002 1.000000 1.000000 1.000000
vn -1.8243008 -2.8277571 2.5100794
v -1.4100000 -19.0830002 20.1289997 0.752941 0.752941 0.752941
vn 3.1029496 3.5368581 0.1723169
v 6.0000000 8.0000000 11.8380003 1.000000 1.000000 1.000000
vn -2.8302414 4.2008295 0.8250952
v -4.7309999 8.0000000 14.2410002 1.000000 1.000000 1.000000
vn -2.8300080 -4.2012434 -0.8253101
v -4.7309999 11.0000000 6.4340000 1.000000 1.000000 1.000000
vn -3.1029499 3.5368581 0.1723168
v -5.0000000 8.0000000 11.8380003 1.000000 1.000000 1.000000
vn -2.2969799 -4.7750711 -1.3637395
v -3.9500000 11.0000000 4.2659998 1.000000 1.000000 1.000000
vn -4.6422462 0.9398333 -2.2017007
v -4.9061999 8.0000000 11.0000000 1.000000 1.000000 1.000000
vn -2.8300097 -0.8252990 -4.2012453
v -4.7309999 6.4340000 11.0000000 1.000000 1.000000 1.000000
vn 2.8302412 4.2008295 0.8250954
v 5.7309999 8.0000000 14.2410002 1.000000 1.000000 1.000000
vn -2.9508202 2.8270917 0.9592798
v -2.5910001 -15.8330002 18.5039997 0.752941 0.752941 0.752941
vn -2.9509377 -3.4548295 -0.9599217
v 3.5929999 -21.2500000 18.5049992 1.000000 1.000000 1.000000
vn -2.2969794 -1.3637394 -4.7750707
v -3.9500000 4.2659998 11.0000000 1.000000 1.000000 1.000000
vn -3.1025205 -3.4573512 0.0000000
v 3.7530000 -21.2500000 17.5000000 1.000000 1.000000 1.000000
vn -2.9508202 -2.8270919 0.9592799
v -2.5910001 -19.0830002 18.5039997 0.752941 0.752941 0.752941
vn -2.9509373 -3.4548297 0.9599222
v 3.5929999 -21.2500000 16.4950008 1.000000 1.000000 1.000000
vn 3.1029737 -3.5367365 -0.1722094
v 6.0000000 11.0000000 8.8380003 1.000000 1.000000 1.000000
vn 0.7899055 -5.4721889 -1.9265150
v 2.2000000 11.0000000 1.4400001 1.000000 1.000000 1.000000
vn 0.0000000 -5.5597358 -1.9771938
v 0.5000000 11.0000000 1.0590000 1.000000 1.000000 1.000000
vn 1.5823779 -5.2081432 -1.7358165
v 3.7330000 11.0000000 2.5450001 1.000000 1.000000 1.000000
vn 2.2969797 -4.7750702 -1.3637395
v 4.9499998 11.0000000 4.2659998 1.000000 1.000000 1.000000
vn 2.8300087 -4.2012434 -0.8253103
v 5.7309999 11.0000000 6.4340000 1.000000 1.000000 1.000000
vn -1.5823777 -5.2081432 -1.7358164
v -2.7330000 11.0000000 2.5450001 1.000000 1.000000 1.000000
vn -0.7899051 -5.4721885 -1.9265146
v -1.2000000 11.0000000 1.4400001 1.000000 1.000000 1.000000
vn 1.5707964 -1.5707970 -1.5707967
v 7.0000000 -13.6669998 11.0000000 1.000000 1.000000 1.000000
vn 2.5100794 2.8277566 -1.8243010
v 3.1289999 -15.8330002 15.5900002 0.752941 0.752941 0.752941
vn 1.8243008 2.8277583 -2.5100794
v 2.4100001 -15.8330002 14.8710003 0.752941 0.752941 0.752941
vn 0.9592802 2.8270924 -2.9508204
v 1.5039999 -15.8330002 14.4090004 0.752941 0.752941 0.752941
vn -0.0000000 2.8274677 -3.1029229
v 0.5000000 -15.8330002 14.2500000 0.752941 0.752941 0.752941
vn 3.1025205 -3.4573512 0.0000000
v -2.7530000 -21.2500000 17.5000000 1.000000 1.000000 1.000000
vn 1.5707964 1.5707964 1.5707963
v 10.0000000 19.0000000 20.0000000 1.000000 1.000000 1.000000
vn 1.5707964 -1.5707974 1.5707964
v 10.0000000 11.0000000 20.0000000 1.000000 1.000000 1.000000
vn 1.8236759 -2.8273113 -2.5103977
v -1.4119999 -15.8310003 20.1310005 1.000000 1.000000 1.000000
vn 2.9509375 -3.4548297 0.9599223
v -2.5929999 -21.2500000 16.4950008 1.000000 1.000000 1.000000
vn 0.9599221 -2.8283548 -2.9509373
v -0.5050000 -15.8310003 20.5930004 1.000000 1.000000 1.000000
vn 1.5707964 1.5707967 1.5707964
v 7.0000000 8.0000000 25.0830002 1.000000 1.000000 1.000000
vn 1.5707963 -1.5707963 1.5707964
v 7.0000000 -13.6669998 25.0830002 1.000000 1.000000 1.000000
vn -0.0000000 -2.8258348 -3.1025205
v 0.5000000 -15.8310003 20.7530003 1.000000 1.000000 1.000000
vn 3.1029422 -3.4556403 0.0000000
v 4.8330002 -13.6669998 17.5000000 1.000000 1.000000 1.000000
vn -3.1029232 2.8274684 -0.0000000
v -2.7500000 -15.8330002 17.5000000 0.752941 0.752941 0.752941
vn 2.9512985 -3.4554744 0.9583003
v 4.6209998 -13.6669998 18.8390007 1.000000 1.000000 1.000000
vn 2.5105476 -3.4560852 1.8233809
v 4.0060000 -13.6669998 20.0470009 1.000000 1.000000 1.000000
vn -3.1029232 -2.8274682 0.0000000
v -2.7500000 -19.0830002 17.5000000 0.752941 0.752941 0.752941
vn -3.1029422 -2.8275456 -0.0000000
v -3.8329999 -21.2500000 17.5000000 1.000000 1.000000 1.000000
vn -2.5105476 -2.8270998 1.8233812
v -3.0060000 -21.2500000 20.0470009 1.000000 1.000000 1.000000
vn -2.9512982 -2.8277104 0.9583000
v -3.6210001 -21.2500000 18.8390007 1.000000 1.000000 1.000000
vn -2.9512982 -2.8277102 -0.9583005
v -3.6210001 -21.2500000 16.1609993 1.000000 1.000000 1.000000
vn -2.5105476 -2.8271003 -1.8233818
v -3.0060000 -21.2500000 14.9530001 1.000000 1.000000 1.000000
vn -3.1025207 -2.8258343 0.0000000
v 3.7530000 -15.8310003 17.5000000 1.000000 1.000000 1.000000
vn -2.5105479 -3.4560852 1.8233814
v -3.0060000 -13.6669998 20.0470009 1.000000 1.000000 1.000000
vn -2.9508202 2.8270917 -0.9592799
v -2.5910001 -15.8330002 16.4960003 0.752941 0.752941 0.752941
vn -2.9512985 -3.4554749 0.9582999
v -3.6210001 -13.6669998 18.8390007 1.000000 1.000000 1.000000
vn 2.5105476 -3.4560852 -1.8233814
v 4.0060000 -13.6669998 14.9530001 1.000000 1.000000 1.000000
vn -3.1029420 -3.4556401 0.0000000
v -3.8329999 -13.6669998 17.5000000 1.000000 1.000000 1.000000
vn 2.9512982 -3.4554746 -0.9583008
v 4.6209998 -13.6669998 16.1609993 1.000000 1.000000 1.000000
vn -2.9508204 -2.8270912 -0.9592798
v -2.5910001 -19.0830002 16.4960003 0.752941 0.752941 0.752941
vn 3.1025205 -2.8258343 0.0000000
v -2.7530000 -15.8310003 17.5000000 1.000000 1.000000 1.000000
vn -2.9512980 -3.4554751 -0.9583005
v -3.6210001 -13.6669998 16.1609993 1.000000 1.000000 1.000000
vn -2.5105476 -3.4560852 -1.8233819
v -3.0060000 -13.6669998 14.9530001 1.000000 1.000000 1.000000
vn 0.9583009 -2.8277099 -2.9512980
v 1.8390000 -21.2500000 13.3789997 1.000000 1.000000 1.000000
vn 0.0000000 -2.8275456 -3.1029420
v 0.5000000 -21.2500000 13.1669998 1.000000 1.000000 1.000000
vn 1.8233815 -2.8271008 -2.5105479
v 3.0469999 -21.2500000 13.9940004 1.000000 1.000000 1.000000
vn 2.5105476 -2.8271003 -1.8233815
v 4.0060000 -21.2500000 14.9530001 1.000000 1.000000 1.000000
vn 2.9512982 -2.8277106 -0.9583007
v 4.6209998 -21.2500000 16.1609993 1.000000 1.000000 1.000000
vn 0.9592802 -2.8270922 -2.9508200
v 1.5039999 -19.0830002 14.4090004 0.752941 0.752941 0.752941
vn 0.0000000 -2.8274674 -3.1029229
v 0.5000000 -19.0830002 14.2500000 0.752941 0.752941 0.752941
vn 1.5707963 1.5707964 -1.5707965
v 7.0000000 8.0000000 11.0000000 1.000000 1.000000 1.000000
vn 0.0000000 -1.9771940 -5.5597358
v 0.5000000 1.0590000 11.0000000 1.000000 1.000000 1.000000
vn 0.7899053 -1.9265144 -5.4721880
v 2.2000000 1.4400001 11.0000000 1.000000 1.000000 1.000000
vn 1.5823779 -1.7358162 -5.2081428
v 3.7330000 2.5450001 11.0000000 1.000000 1.000000 1.000000
vn 2.2969799 -1.3637396 -4.7750707
v 4.9499998 4.2659998 11.0000000 1.000000 1.000000 1.000000
vn 2.8300092 -0.8252991 -4.2012458
v 5.7309999 6.4340000 11.0000000 1.000000 1.000000 1.000000
vn 2.9509377 -3.4548295 -0.9599217
v -2.5929999 -21.2500000 18.5049992 1.000000 1.000000 1.000000
vn 4.6422462 0.9398333 -2.2017007
v 5.9061999 8.0000000 11.0000000 1.000000 1.000000 1.000000
vn 2.5103974 -3.4558754 -1.8236753
v -2.1310000 -21.2500000 19.4120007 1.000000 1.000000 1.000000
vn 1.8243008 -2.8277574 -2.5100794
v 2.4100001 -19.0830002 14.8710003 0.752941 0.752941 0.752941
vn 1.8236761 -3.4558740 -2.5103979
v -1.4119999 -21.2500000 20.1310005 1.000000 1.000000 1.000000
vn 0.9599221 -3.4548302 -2.9509373
v -0.5050000 -21.2500000 20.5930004 1.000000 1.000000 1.000000
vn -0.0000000 -3.4556398 -3.1029422
v 0.5000000 -13.6669998 13.1669998 1.000000 1.000000 1.000000
vn 0.9583008 -3.4554753 -2.9512980
v 1.8390000 -13.6669998 13.3789997 1.000000 1.000000 1.000000
vn 1.8233817 -3.4560843 -2.5105481
v 3.0469999 -13.6669998 13.9940004 1.000000 1.000000 1.000000
vn -0.9599221 -2.8283548 -2.9509373
v 1.5050000 -15.8310003 20.5930004 1.000000 1.000000 1.000000
vn 1.8233806 -2.8271005 2.5105481
v 3.0469999 -21.2500000 21.0060005 1.000000 1.000000 1.000000
vn 0.9583000 -2.8277106 2.9512982
v 1.8390000 -21.2500000 21.6210003 1.000000 1.000000 1.000000
vn 0.0000000 -2.8275454 3.1029425
v 0.5000000 -21.2500000 21.8330002 1.000000 1.000000 1.000000
vn -0.9583000 -2.8277106 2.9512982
v -0.8390000 -21.2500000 21.6210003 1.000000 1.000000 1.000000
vn -1.8233806 -2.8271003 2.5105484
v -2.0469999 -21.2500000 21.0060005 1.000000 1.000000 1.000000
vn -1.8236759 -2.8273113 -2.5103979
v 2.4119999 -15.8310003 20.1310005 1.000000 1.000000 1.000000
vn -1.8233817 -2.8271012 -2.5105481
v -2.0469999 -21.2500000 13.9940004 1.000000 1.000000 1.000000
vn -0.9583008 -2.8277099 -2.9512980
v -0.8390000 -21.2500000 13.3789997 1.000000 1.000000 1.000000
vn 3.1029420 -2.8275449 0.0000000
v 4.8330002 -21.2500000 17.5000000 1.000000 1.000000 1.000000
vn -2.5103979 -2.8273103 -1.8236755
v 3.1310000 -15.8310003 19.4120007 1.000000 1.000000 1.000000
vn 2.9512982 -2.8277109 0.9583002
v 4.6209998 -21.2500000 18.8390007 1.000000 1.000000 1.000000
vn 2.5105481 -2.8270998 1.8233811
v 4.0060000 -21.2500000 20.0470009 1.000000 1.000000 1.000000
vn 0.9584168 -3.4558024 2.9511755
v -0.5050000 -21.2500000 14.4069996 1.000000 1.000000 1.000000
vn -2.9509373 -2.8283558 -0.9599215
v 3.5929999 -15.8310003 18.5049992 1.000000 1.000000 1.000000
vn -1.8233815 -3.4560843 -2.5105479
v -2.0469999 -13.6669998 13.9940004 1.000000 1.000000 1.000000
vn -0.9583009 -3.4554753 -2.9512980
v -0.8390000 -13.6669998 13.3789997 1.000000 1.000000 1.000000
vn 1.8236772 -3.4558733 2.5103974
v -1.4119999 -21.2500000 14.8690004 1.000000 1.000000 1.000000
vn 2.5103977 -3.4558749 1.8236759
v -2.1310000 -21.2500000 15.5880003 1.000000 1.000000 1.000000
vn -0.0000000 -2.8277769 3.1029987
v 0.5000000 -15.8310003 14.2480001 1.000000 1.000000 1.000000
vn -2.9509373 -2.8283553 0.9599223
v 3.5929999 -15.8310003 16.4950008 1.000000 1.000000 1.000000
vn 0.0000000 -3.4554086 3.1029987
v 0.5000000 -21.2500000 14.2480001 1.000000 1.000000 1.000000
vn -2.5103977 -3.4558749 1.8236761
v 3.1310000 -21.2500000 15.5880003 1.000000 1.000000 1.000000
vn -1.8236771 -3.4558733 2.5103970
v 2.4119999 -21.2500000 14.8690004 1.000000 1.000000 1.000000
vn -0.9584169 -3.4558024 2.9511757
v 1.5050000 -21.2500000 14.4069996 1.000000 1.000000 1.000000
vn 2.9508202 2.8270917 -0.9592799
v 3.5910001 -15.8330002 16.4960003 0.752941 0.752941 0.752941
vn 2.9508202 -2.8270917 -0.9592798
v 3.5910001 -19.0830002 16.4960003 0.752941 0.752941 0.752941
vn 3.1029232 2.8274684 0.0000000
v 3.7500000 -15.8330002 17.5000000 0.752941 0.752941 0.752941
vn 3.1029232 -2.8274684 0.0000000
v 3.7500000 -19.0830002 17.5000000 0.752941 0.752941 0.752941
vn 3.0722315 -2.8454394 0.5302948
v 5.7309999 11.0000000 11.2410002 1.000000 1.000000 1.000000
vn 2.7237935 -2.1962938 1.2154583
v 4.9499998 11.0000000 13.4099998 1.000000 1.000000 1.000000
vn 2.9508204 2.8270917 0.9592798
v 3.5910001 -15.8330002 18.5039997 0.752941 0.752941 0.752941
vn 2.9508202 -2.8270919 0.9592799
v 3.5910001 -19.0830002 18.5039997 0.752941 0.752941 0.752941
vn -0.9592803 -2.8270905 2.9508200
v -0.5040000 -19.0830002 20.5909996 0.752941 0.752941 0.752941
vn 2.5100794 2.8277576 1.8243010
v 3.1289999 -15.8330002 19.4099998 0.752941 0.752941 0.752941
vn 2.2964625 4.7756262 1.3638744
v 4.9499998 8.0000000 16.4099998 1.000000 1.000000 1.000000
vn 2.5100794 -2.8277571 1.8243010
v 3.1289999 -19.0830002 19.4099998 0.752941 0.752941 0.752941
vn 0.9592802 -2.8270919 2.9508200
v 1.5039999 -19.0830002 20.5909996 0.752941 0.752941 0.752941
vn 0.0000000 -2.8274674 3.1029229
v 0.5000000 -19.0830002 20.7500000 0.752941 0.752941 0.752941
vn 1.8243005 -2.8277574 2.5100794
v 2.4100001 -19.0830002 20.1289997 0.752941 0.752941 0.752941
vn 1.8243008 2.8277583 2.5100794
v 2.4100001 -15.8330002 20.1289997 0.752941 0.752941 0.752941
vn -2.5100794 -2.8277571 -1.8243012
v -2.1289999 -19.0830002 15.5900002 0.752941 0.752941 0.752941
vn -1.8243008 -2.8277571 -2.5100799
v -1.4100000 -19.0830002 14.8710003 0.752941 0.752941 0.752941
vn -0.9592803 -2.8270922 -2.9508200
v -0.5040000 -19.0830002 14.4090004 0.752941 0.752941 0.752941
vn 2.5100794 -2.8277574 -1.8243010
v 3.1289999 -19.0830002 15.5900002 0.752941 0.752941 0.752941
vn 1.5707964 1.5707964 -1.5707963
v 10.0000000 19.0000000 0.0000000 1.000000 1.000000 1.000000
vn 1.5707964 -1.5707974 -1.5707964
v 10.0000000 11.0000000 0.0000000 1.000000 1.000000 1.000000
vn 0.9592803 2.8270924 2.9508202
v 1.5039999 -15.8330002 20.5909996 0.752941 0.752941 0.752941
vn 0.0000000 2.8274677 3.1029227
v 0.5000000 -15.8330002 20.7500000 0.752941 0.752941 0.752941
vn 1.8233807 -3.4560847 2.5105484
v 3.0469999 -13.6669998 21.0060005 1.000000 1.000000 1.000000
vn -2.5100791 2.8277574 -1.8243011
v -2.1289999 -15.8330002 15.5900002 0.752941 0.752941 0.752941
vn 0.9582999 -3.4554746 2.9512982
v 1.8390000 -13.6669998 21.6210003 1.000000 1.000000 1.000000
vn 0.0000000 -3.4556398 3.1029420
v 0.5000000 -13.6669998 21.8330002 1.000000 1.000000 1.000000
vn -0.9582999 -3.4554746 2.9512985
v -0.8390000 -13.6669998 21.6210003 1.000000 1.000000 1.000000
vn -1.8233807 -3.4560847 2.5105484
v -2.0469999 -13.6669998 21.0060005 1.000000 1.000000 1.000000
vn -1.8243008 2.8277576 -2.5100796
v -1.4100000 -15.8330002 14.8710003 0.752941 0.752941 0.752941
vn 2.9509373 -2.8283558 0.9599222
v -2.5929999 -15.8310003 16.4950008 1.000000 1.000000 1.000000
vn -0.9592803 2.8270924 2.9508200
v -0.5040000 -15.8330002 20.5909996 0.752941 0.752941 0.752941
vn -0.9592803 2.8270919 -2.9508200
v -0.5040000 -15.8330002 14.4090004 0.752941 0.752941 0.752941
vn 2.9509373 -2.8283560 -0.9599215
v -2.5929999 -15.8310003 18.5049992 1.000000 1.000000 1.000000
vn 2.5103979 -2.8273103 -1.8236755
v -2.1310000 -15.8310003 19.4120007 1.000000 1.000000 1.000000
vn 0.9584169 -2.8273830 2.9511757
v -0.5050000 -15.8310003 14.4069996 1.000000 1.000000 1.000000
vn 1.8236771 -2.8273156 2.5103970
v -1.4119999 -15.8310003 14.8690004 1.000000 1.000000 1.000000
vn 2.5103977 -2.8273108 1.8236761
v -2.1310000 -15.8310003 15.5880003 1.000000 1.000000 1.000000
vn -2.5103974 -2.8273106 1.8236759
v 3.1310000 -15.8310003 15.5880003 1.000000 1.000000 1.000000
vn -1.8236772 -2.8273122 2.5103974
v 2.4119999 -15.8310003 14.8690004 1.000000 1.000000 1.000000
vn -0.9584168 -2.8273833 2.9511752
v 1.5050000 -15.8310003 14.4069996 1.000000 1.000000 1.000000
vn 0.0000000 -1.1716123 2.4109275
v 0.5000000 11.0000000 16.6159992 1.000000 1.000000 1.000000
vn 1.5822797 5.2080755 1.7360240
v 3.7330000 8.0000000 18.1299992 1.000000 1.000000 1.000000
vn 0.7899045 5.4721885 1.9265136
v 2.2000000 8.0000000 19.2350006 1.000000 1.000000 1.000000
vn 0.0000000 5.5597343 1.9771945
v 0.5000000 8.0000000 19.6159992 1.000000 1.000000 1.000000
vn -0.7899045 5.4721889 1.9265137
v -1.2000000 8.0000000 19.2350006 1.000000 1.000000 1.000000
vn -1.5822797 5.2080760 1.7360241
v -2.7330000 8.0000000 18.1299992 1.000000 1.000000 1.000000
vn 2.0650709 -1.6575916 1.8144616
v 3.7330000 11.0000000 15.1300001 1.000000 1.000000 1.000000
vn 1.1284387 -1.2989401 2.2467351
v 2.2000000 11.0000000 16.2350006 1.000000 1.000000 1.000000
vn -1.1284387 -1.2989401 2.2467349
v -1.2000000 11.0000000 16.2350006 1.000000 1.000000 1.000000
vn -2.0650706 -1.6575913 1.8144616
v -2.7330000 11.0000000 15.1300001 1.000000 1.000000 1.000000
# 178 vertices, 0 vertices normals


usemtl material_0
f 15//15 16//16 22//22
f 22//22 16//16 19//19
f 35//35 19//19 31//31
f 16//16 31//31 19//19
f 48//48 49//49 47//47
f 49//49 160//160 47//47
f 31//31 60//60 63//63
f 31//31 63//63 35//35
f 71//71 76//76 60//60
f 63//63 60//60 76//76
f 86//86 49//49 85//85
f 48//48 85//85 49//49
f 47//47 96//96 48//48
f 96//96 85//85 48//48
f 127//127 128//128 46//46
f 129//129 130//130 127//127
f 130//130 128//128 127//127
f 130//130 129//129 133//133
f 133//133 134//134 130//130
f 22//22 19//19 143//143
f 76//76 143//143 19//19
f 63//63 76//76 19//19
f 63//63 19//19 35//35
f 136//136 138//138 133//133
f 138//138 134//134 133//133
f 135//135 146//146 140//140
f 140//140 146//146 139//139
f 139//139 128//128 130//130
f 139//139 130//130 134//134
f 139//139 134//134 138//138
f 139//139 138//138 141//141
f 138//138 136//136 141//141
f 142//142 141//141 136//136
f 143//143 144//144 22//22
f 135//135 22//22 144//144
f 135//135 144//144 145//145
f 96//96 47//47 146//146
f 46//46 146//146 47//47
f 128//128 139//139 146//146
f 145//145 86//86 135//135
f 86//86 85//85 135//135
f 96//96 135//135 85//85
f 146//146 135//135 96//96
f 128//128 146//146 46//46
f 142//142 149//149 141//141
f 141//141 149//149 139//139
f 140//140 139//139 150//150
f 149//149 150//150 139//139
f 143//143 76//76 152//152
f 71//71 152//152 76//76
f 152//152 157//157 144//144
f 152//152 144//144 143//143
f 160//160 145//145 144//144
f 160//160 144//144 157//157
f 140//140 150//150 135//135
f 159//159 135//135 150//150
f 22//22 135//135 15//15
f 159//159 15//15 135//135
f 86//86 145//145 160//160
f 86//86 160//160 49//49
f 16//16 46//46 31//31
f 60//60 31//31 46//46
f 15//15 46//46 16//16
f 159//159 46//46 15//15
f 71//71 60//60 46//46
f 149//149 142//142 150//150
f 159//159 150//150 142//142
f 159//159 142//142 136//136
f 159//159 136//136 133//133
f 159//159 133//133 129//129
f 159//159 129//129 127//127
f 159//159 127//127 46//46
f 46//46 47//47 157//157
f 152//152 46//46 157//157
f 71//71 46//46 152//152
f 160//160 157//157 47//47

usemtl material_1
f 1//1 2//2 3//3
f 1//1 3//3 4//4
f 14//14 11//11 13//13
f 10//10 13//13 11//11
f 21//21 20//20 26//26
f 5//5 12//12 24//24
f 21//21 24//24 12//12
f 17//17 18//18 43//43
f 29//29 28//28 25//25
f 21//21 26//26 24//24
f 28//28 26//26 20//20
f 20//20 25//25 28//28
f 29//29 25//25 27//27
f 27//27 33//33 29//29
f 18//18 33//33 27//27
f 21//21 4//4 20//20
f 40//40 38//38 148//148
f 37//37 42//42 148//148
f 12//12 178//178 4//4
f 12//12 4//4 21//21
f 3//3 148//148 39//39
f 39//39 148//148 38//38
f 3//3 20//20 4//4
f 40//40 148//148 41//41
f 20//20 3//3 25//25
f 25//25 3//3 27//27
f 27//27 3//3 43//43
f 42//42 41//41 148//148
f 44//44 43//43 3//3
f 13//13 28//28 29//29
f 33//33 14//14 29//29
f 5//5 24//24 10//10
f 39//39 44//44 3//3
f 13//13 10//10 24//24
f 13//13 29//29 14//14
f 24//24 26//26 13//13
f 13//13 26//26 28//28
f 113//113 59//59 61//61
f 93//93 66//66 50//50
f 64//64 50//50 66//66
f 68//68 54//54 67//67
f 64//64 67//67 50//50
f 116//116 164//164 69//69
f 113//113 61//61 62//62
f 66//66 65//65 72//72
f 70//70 72//72 65//65
f 72//72 74//74 64//64
f 72//72 64//64 66//66
f 84//84 83//83 73//73
f 77//77 161//161 50//50
f 89//89 45//45 88//88
f 89//89 90//90 45//45
f 90//90 91//91 45//45
f 91//91 92//92 45//45
f 87//87 45//45 92//92
f 50//50 67//67 54//54
f 87//87 92//92 94//94
f 67//67 64//64 78//78
f 64//64 74//74 78//78
f 78//78 79//79 68//68
f 78//78 68//68 67//67
f 66//66 93//93 65//65
f 97//97 107//107 95//95
f 95//95 65//65 93//93
f 18//18 17//17 14//14
f 14//14 33//33 18//18
f 88//88 14//14 17//17
f 98//98 107//107 97//97
f 14//14 74//74 11//11
f 45//45 14//14 88//88
f 69//69 34//34 116//116
f 65//65 95//95 107//107
f 72//72 70//70 11//11
f 74//74 72//72 11//11
f 75//75 84//84 73//73
f 114//114 103//103 9//9
f 59//59 84//84 75//75
f 74//74 14//14 78//78
f 113//113 114//114 32//32
f 78//78 14//14 79//79
f 111//111 113//113 34//34
f 8//8 9//9 103//103
f 36//36 84//84 34//34
f 59//59 57//57 61//61
f 61//61 57//57 62//62
f 151//151 62//62 57//57
f 7//7 106//106 98//98
f 103//103 104//104 6//6
f 6//6 8//8 103//103
f 105//105 7//7 104//104
f 6//6 104//104 7//7
f 106//106 7//7 105//105
f 107//107 98//98 106//106
f 73//73 45//45 75//75
f 59//59 75//75 45//45
f 111//111 34//34 84//84
f 32//32 34//34 113//113
f 9//9 32//32 114//114
f 117//117 118//118 109//109
f 54//54 68//68 120//120
f 155//155 106//106 105//105
f 119//119 120//120 109//109
f 109//109 120//120 68//68
f 155//155 107//107 106//106
f 100//100 80//80 81//81
f 100//100 81//81 99//99
f 100//100 101//101 80//80
f 82//82 80//80 101//101
f 126//126 82//82 125//125
f 82//82 73//73 83//83
f 123//123 81//81 126//126
f 125//125 82//82 124//124
f 73//73 82//82 101//101
f 102//102 6//6 7//7
f 84//84 36//36 83//83
f 124//124 83//83 36//36
f 36//36 166//166 124//124
f 118//118 110//110 109//109
f 80//80 126//126 81//81
f 82//82 126//126 80//80
f 83//83 124//124 82//82
f 123//123 115//115 81//81
f 110//110 81//81 115//115
f 119//119 109//109 115//115
f 110//110 115//115 109//109
f 166//166 125//125 124//124
f 118//118 99//99 110//110
f 81//81 110//110 99//99
f 111//111 84//84 59//59
f 113//113 111//111 59//59
f 62//62 114//114 113//113
f 99//99 45//45 100//100
f 118//118 117//117 14//14
f 57//57 59//59 45//45
f 34//34 69//69 122//122
f 14//14 45//45 99//99
f 122//122 36//36 34//34
f 100//100 45//45 101//101
f 99//99 118//118 14//14
f 103//103 114//114 62//62
f 37//37 131//131 23//23
f 23//23 94//94 37//37
f 32//32 9//9 116//116
f 131//131 30//30 23//23
f 131//131 132//132 30//30
f 32//32 116//116 34//34
f 132//132 131//131 52//52
f 120//120 158//158 54//54
f 37//37 52//52 131//131
f 77//77 50//50 54//54
f 8//8 108//108 9//9
f 30//30 87//87 23//23
f 94//94 23//23 87//87
f 93//93 50//50 161//161
f 93//93 161//161 95//95
f 9//9 112//112 116//116
f 112//112 9//9 108//108
f 132//132 137//137 30//30
f 52//52 175//175 132//132
f 122//122 166//166 36//36
f 147//147 51//51 52//52
f 147//147 52//52 148//148
f 52//52 37//37 148//148
f 102//102 108//108 6//6
f 8//8 6//6 108//108
f 2//2 1//1 147//147
f 57//57 45//45 87//87
f 56//56 57//57 87//87
f 87//87 30//30 56//56
f 148//148 3//3 147//147
f 2//2 147//147 3//3
f 170//170 56//56 137//137
f 7//7 58//58 102//102
f 137//137 56//56 30//30
f 11//11 57//57 10//10
f 56//56 10//10 57//57
f 90//90 38//38 40//40
f 119//119 164//164 120//120
f 90//90 40//40 41//41
f 103//103 62//62 151//151
f 104//104 103//103 153//153
f 151//151 153//153 103//103
f 104//104 153//153 105//105
f 154//154 105//105 153//153
f 17//17 43//43 44//44
f 105//105 154//154 155//155
f 98//98 58//58 7//7
f 39//39 38//38 88//88
f 89//89 88//88 38//38
f 89//89 38//38 90//90
f 107//107 155//155 156//156
f 70//70 65//65 107//107
f 41//41 91//91 90//90
f 97//97 53//53 98//98
f 92//92 91//91 42//42
f 41//41 42//42 91//91
f 42//42 37//37 94//94
f 42//42 94//94 92//92
f 44//44 39//39 88//88
f 17//17 44//44 88//88
f 55//55 58//58 98//98
f 156//156 70//70 107//107
f 27//27 43//43 18//18
f 121//121 115//115 123//123
f 164//164 119//119 115//115
f 77//77 54//54 158//158
f 164//164 58//58 55//55
f 164//164 55//55 53//53
f 164//164 53//53 162//162
f 164//164 162//162 161//161
f 164//164 161//161 77//77
f 164//164 77//77 158//158
f 162//162 53//53 95//95
f 122//122 69//69 164//164
f 112//112 164//164 116//116
f 108//108 164//164 112//112
f 102//102 164//164 108//108
f 58//58 164//164 102//102
f 166//166 122//122 164//164
f 97//97 95//95 53//53
f 55//55 98//98 53//53
f 117//117 109//109 79//79
f 68//68 79//79 109//109
f 121//121 163//163 115//115
f 115//115 163//163 164//164
f 165//165 120//120 164//164
f 165//165 158//158 120//120
f 95//95 161//161 162//162
f 167//167 125//125 166//166
f 167//167 168//168 125//125
f 126//126 125//125 168//168
f 121//121 123//123 168//168
f 123//123 126//126 168//168
f 163//163 121//121 164//164
f 158//158 165//165 164//164
f 166//166 164//164 167//167
f 168//168 167//167 164//164
f 121//121 168//168 164//164
f 156//156 155//155 11//11
f 57//57 154//154 153//153
f 151//151 57//57 153//153
f 11//11 154//154 57//57
f 154//154 11//11 155//155
f 11//11 70//70 156//156
f 73//73 101//101 45//45
f 14//14 117//117 79//79
f 51//51 1//1 4//4
f 51//51 4//4 52//52
f 132//132 175//175 137//137
f 171//171 170//170 176//176
f 172//172 171//171 169//169
f 169//169 173//173 172//172
f 170//170 137//137 175//175
f 175//175 176//176 170//170
f 176//176 169//169 171//171
f 169//169 177//177 173//173
f 177//177 178//178 174//174
f 177//177 174//174 173//173
f 178//178 12//12 5//5
f 178//178 5//5 174//174
f 176//176 52//52 169//169
f 175//175 52//52 176//176
f 4//4 169//169 52//52
f 169//169 4//4 177//177
f 178//178 177//177 4//4
f 51//51 147//147 1//1
f 172//172 173//173 10//10
f 56//56 172//172 10//10
f 172//172 56//56 171//171
f 56//56 170//170 171//171
f 173//173 174//174 10//10
f 5//5 10//10 174//174
# 348 faces, 0 coords texture

# End of File
